<?xml version="1.0" encoding="UTF-8"?>
<svg id="Layer_2" data-name="Layer 2" xmlns="http://www.w3.org/2000/svg" viewBox="0 0 1374.77 1654.4">
  <defs>
    <style>
      .cls-1 {
        fill: #fff;
      }
    </style>
  </defs>
  <g id="background">
    <g>
      <g>
        <path class="cls-1" d="M293.19,510.15h-54.48v369.36h.84v387.43c0,29.61,24.03,53.62,53.65,53.62h114.59v238.41c0,52.7,42.73,95.43,95.43,95.43s95.43-42.73,95.43-95.43v-238.41h177.47v238.41c0,52.7,42.73,95.43,95.43,95.43s95.44-42.73,95.44-95.43v-238.41h114.59c29.61,0,53.62-24.01,53.62-53.62v-387.43h.86V510.15H293.19Z"/>
        <path class="cls-1" d="M1279.33,479.62c-52.7,0-95.43,42.73-95.43,95.44v428.86c0,52.7,42.73,95.43,95.43,95.43s95.44-42.73,95.44-95.43v-428.86c0-52.71-42.73-95.44-95.44-95.44Z"/>
        <path class="cls-1" d="M95.43,479.62c-52.7,0-95.43,42.73-95.43,95.44v428.86c0,52.7,42.73,95.43,95.43,95.43s95.44-42.73,95.44-95.43v-428.86c0-52.71-42.73-95.44-95.44-95.44Z"/>
        <path class="cls-1" d="M903.71,121.02L980.52,12.62c1.6-2.24-.69-6.58-5.12-9.72-4.38-3.1-9.25-3.84-10.85-1.6l-79.25,111.84c-53.57-20.99-118.64-34.03-197.92-34.27-79.73-.25-145.07,12.39-198.8,33.07L410.19,1.3c-1.6-2.25-6.47-1.51-10.84,1.6-4.42,3.14-6.72,7.47-5.13,9.72l75.88,107.09c-221.17,97.74-227.68,337.6-227.68,337.6h889.92s-9.07-237.73-228.63-336.29Z"/>
      </g>
      <g>
        <circle class="cls-1" cx="492.09" cy="263.45" r="53.57" transform="translate(117.94 677.67) rotate(-76.07)"/>
        <circle class="cls-1" cx="882.68" cy="263.45" r="53.57" transform="translate(578.75 1133.03) rotate(-87.35)"/>
      </g>
    </g>
  </g>
</svg>