<?xml version="1.0" encoding="UTF-8"?>
<svg id="Layer_2" data-name="Layer 2" xmlns="http://www.w3.org/2000/svg" viewBox="0 0 1448.87 1685.62">
  <defs>
    <style>
      .cls-1 {
        fill: #fff;
        fill-rule: evenodd;
      }
    </style>
  </defs>
  <g id="background">
    <g>
      <path class="cls-1" d="M76.16,607.53c-.54,.82-1.08,1.63-1.59,2.48-37.19,58.29-60.91,132.1-70.17,215.12-7.45,66.81-5.53,139.63,6.31,215.16,10.98,70.27,30.54,142.86,59.07,215.15,26.56,67.3,60.94,134.34,103.41,199,3.54,5.39,7.15,10.79,10.79,16.21,69.88,103.87,161.56,213.86,279.63,214.96,110.43,1.03,141.7-70.44,291.53-71.29,149.82-.82,178.15,72.06,288.58,71.04,113.17-1.05,206.44-113.04,275.92-214.8,6.81-9.97,13.37-19.83,19.72-29.45,47.16-71.78,66.91-110.66,100.98-185.59,2.74-6.05,5.59-12.31,8.53-18.87-99.24-37.49-169.74-110.44-207.83-196.32-29.9-67.38-39.83-142.79-27.99-215.23,13.05-80.18,52.79-156.78,121.57-215,19.37-16.42,41.03-31.35,65.06-44.51-86.88-108.32-208.84-170.96-323.88-170.96-152.26,0-216.6,72.29-322.22,72.29s-191.66-72.19-323.34-72.19-266.87,78.57-354.07,212.81Z"/>
      <path class="cls-1" d="M960.3,273.68c55.27-70.99,97.32-171.21,82.08-273.68-90.36,6.19-196.05,63.71-257.78,138.61-56.01,68.03-102.25,168.92-84.25,266.94,98.65,3.06,200.7-55.84,259.96-131.88Z"/>
    </g>
  </g>
</svg>