<?xml version="1.0" encoding="UTF-8"?>
<svg id="Layer_2" data-name="Layer 2" xmlns="http://www.w3.org/2000/svg" viewBox="0 0 638.08 155.05">
  <defs>
    <style>
      .cls-1 {
        fill: #fff;
        fill-rule: evenodd;
      }
    </style>
  </defs>
  <g id="Vector_Logo" data-name="Vector Logo">
    <g>
      <polygon class="cls-1" points="61.47 40.7 84.56 40.7 114.76 91.03 114.76 40.43 138.12 40.43 138.12 113.98 114.62 113.85 84.29 63.52 84.43 113.85 60.4 113.85 61.47 40.7 61.47 40.7"/>
      <polygon class="cls-1" points="152.34 40.97 175.56 40.97 175.83 55.19 152.47 55.19 152.34 40.97 152.34 40.97"/>
      <polygon class="cls-1" points="151.94 65.39 175.43 65.26 175.43 113.98 151.94 113.98 151.94 65.39 151.94 65.39"/>
      <polygon class="cls-1" points="303.87 58.15 291.79 58.15 291.79 48.48 268.98 48.48 268.88 58.15 256.36 58.15 256.22 65.13 268.81 65.17 268.3 114.65 291.79 114.65 291.79 65.22 303.87 65.26 303.87 58.15 303.87 58.15"/>
      <path class="cls-1" d="M324.95,77.34c.26-3.36,3.35-7.79,8.59-7.92,5.5,0,8.18,4.7,8.46,6.98v6.31h-17.04v-5.37h0Zm41.61,11.27c-.27-13.15-13.16-25.64-32.48-25.37-13.29-.13-33.95,6.57-33.69,27.37-.13,14.37,13.29,26.71,33.16,26.58,10.6-.13,28.05-6.04,31.54-19.59l-22.82-.13c-.19,4.91-.83,13.59-8.99,13.55-2.82,0-8.32-1.88-8.59-8.32-.27-6.57,0-12.34,0-12.34h41.75l.13-1.75h0Z"/>
      <path class="cls-1" d="M417.35,63.38c-9.24-.21-14.78,3.28-19.91,7.05l.04-4.77h-23.22l-.54,48.98h23.36l.25-29.9c1.6-9.83,7.93-10.38,10.76-10.5,6.98-.13,9.53,6.3,9.67,11.41l.26,29.12h23.49l.14-24.83c-.14-20.81-17.05-26.44-24.3-26.58h0Z"/>
      <path class="cls-1" d="M545.33,78.82c.4-3.36,1.74-8.86,9.13-9,4.43,.14,8.32,3.89,8.45,7.79v25.77c-.13,2.95-3.62,7.79-8.99,7.92-4.29,0-8.46-3.62-8.46-7.64l-.13-24.83h0Zm-24.56,11.81c.14,12.49,10.07,26.45,32.62,26.71,17.85,0,34.9-9.52,34.23-27.91-.27-15.03-15.84-26.04-33.15-26.04-14.37,.14-33.56,7.79-33.69,27.24h0Z"/>
      <path class="cls-1" d="M232,63.25c-9.24-.21-14.78,3.28-19.9,7.05l.04-4.78h-23.22l-.54,48.99h23.35l.25-29.95c1.61-9.8,7.94-10.33,10.76-10.44,6.98-.14,9.53,6.3,9.66,11.4l.27,29.12h23.49l.13-24.83c-.13-20.81-17.05-26.44-24.3-26.57h0Z"/>
      <path class="cls-1" d="M83.76,154.79C25.5,154.79,.27,112.37,0,76.67,.54,28.62,43.49-.1,78.65,.17c31.68,.24,478.31-.17,478.31-.17,52.07,0,80.58,37.21,81.11,73.72,.27,32.48-17.72,80.8-85.63,81.33l-468.69-.26h0Zm-7.25-137.37c-37.58,.27-56.25,37.51-56.37,58.45-.27,44.83,41.07,61.47,63.88,61.2h478.89c20.67-1.07,56.64-23.62,55.84-62.27-.46-22.04-22.47-57.76-55.89-57.76-22.9,0-486.35,.38-486.35,.38h0Z"/>
      <path class="cls-1" d="M577.37,56.46c0-7.18,5.82-12.47,12.7-12.47s12.63,5.29,12.63,12.47-5.82,12.53-12.63,12.53-12.7-5.29-12.7-12.53h0Zm12.7,10.45c5.66,0,10.12-4.44,10.12-10.45s-4.46-10.39-10.12-10.39-10.19,4.46-10.19,10.39,4.46,10.45,10.19,10.45h0Zm-2.65-3.21h-2.18v-14.42h5.49c3.41,0,5.09,1.25,5.09,4.1,0,2.58-1.62,3.7-3.74,3.97l4.1,6.35h-2.45l-3.8-6.25h-2.51v6.25h0Zm2.62-8.11c1.85,0,3.51-.13,3.51-2.35,0-1.79-1.62-2.12-3.14-2.12h-2.98v4.46h2.62Z"/>
      <path class="cls-1" d="M490.44,41.91l.1,26.8c-5.47-3.78-9.75-5.05-15.4-4.92-14.5-.27-26.45,13.15-26.31,25.77-.27,10.47,6.57,27.24,25.36,27.24,5.64,0,9.53-.67,15.3-4.29l1.08,2.02,.13-.11v.65l22.68-.14V42.04l-22.95-.14h0Zm-8.46,66.57c-7.52-.13-9-6.83-9.14-8.98,0-4.03,.12-16.01,.12-19.79,0-4.29,2.97-7.74,9.68-7.61,5.13,.08,7.22,3.9,7.92,8.14l.08,20.1c-.43,5.54-2.81,8.01-8.67,8.14h0Z"/>
    </g>
  </g>
</svg>