<?xml version="1.0" encoding="UTF-8"?>
<svg id="Layer_2" data-name="Layer 2" xmlns="http://www.w3.org/2000/svg" viewBox="0 0 542.5 619.32">
  <defs>
    <style>
      .cls-1 {
        fill: #fff;
      }
    </style>
  </defs>
  <g id="Layer_1-2" data-name="Layer 1">
    <path class="cls-1" d="M457.47,262.48c11.88,82.3-73.31,99.72-122.32,98.2-3.15-.1-6.11,1.43-7.97,3.98-5.07,6.93-13.17,15.89-19.43,15.89-7.03,0-13.35,13.51-16.24,21.92-.3,.88,.57,1.7,1.45,1.41,77.62-25.2,108.08-33.85,121.2-31.42,10.59,1.96,30.41,37.43,38.99,54.91-21.33,1.23-28.44-17.9-33.35-21.33-3.92-2.74-5.39,9.81-5.64,16.42-4.66-2.45-10.54-5.88-11.04-16.42-.49-10.54-5.89-7.84-10.05-7.35-4.17,.49-68.17,21.08-77.73,23.78s-20.6,6.37-29.67,12.75c-15.2,7.36-25.01,2.21-27.71-10.3-2.16-10,11.85-40.78,19.13-54.91-8.99,3.35-27.66,10.15-30.41,10.54-2.66,.38-36.45,26.46-54.51,40.63-1.05,.83-1.73,2.04-1.98,3.36-2.89,15.7-12.12,20.1-28.11,28.33-12.87,6.62-57.82,75.7-80.93,112.99-1.6,2.58-3.94,4.56-6.46,6.25-14.68,9.86-29.63,34.94-35.7,47.21-8.63-24.91,2.62-46.33,9.32-53.93-2.94-2.55-9.73-1.06-12.75,0,8.34-28.68,37.52-28.68,36.54-28.68,5.39-4.66,68.66-95.12,70.13-99.28,1.46-4.13-.94-23.47,30.85-34.07,.51-.17,1.01-.4,1.45-.69,24.77-15.92,43.35-41.59,49.59-52.52-33.07-2.27-70.95-20.71-90.75-32.56-4.27-2.55-8.8-4.77-13.74-5.33-27.11-3.07-54.26,14.28-65.2,24.16-4.51-6.27,.57-24.51,3.68-32.85-10.99-1.57-27.14,14.38-33.84,22.55-7.26-11.37-.9-31.71,3.19-40.45-14.52,.39-24.36,7.03-27.46,10.3,12.02-89.48,103.92-63.46,104.95-62.27-4.9-5.1-4.49-11.77-3.68-14.46,55.66,1.47,81.65-7.84,98.08-17.4,129.47-72.32,185.26-27.95,205.85-16.79,20.6,11.15,57.99,15.69,83.86,5.39,30.9-13.97,26.24-49.99,19.98-63.74-6.87-15.08-45.61-35.91-59.34-62.27-13.73-26.35-1.77-58.4,14.14-62.87,15.16-4.26,25.98,.7,34.29,8.2,5.54,5,21.09,8.58,27.59,10.91,6.5,2.33,17.29,5.39,16.67,7.23s-11.02,1.59-12.63,1.59c-3.31,0-7.23,.49-3.31,2.33,4.6,1.87,11.55,4.58,14.87,6.36,.43,.23,.34,.84-.13,.96-22.56,6.07-42.71-6.46-57.65,8-15.2,14.71,17.17,25.99,33.84,43.64,16.67,17.65,33.84,38.73,20.11,86.78-10.63,37.2-55.19,68.82-78.2,81.2-1.32,.71-2.05,2.23-1.83,3.72Z"/>
  </g>
</svg>