<?xml version="1.0" encoding="UTF-8"?>
<svg id="Layer_2" data-name="Layer 2" xmlns="http://www.w3.org/2000/svg" viewBox="0 0 310.19 239.36">
  <defs>
    <style>
      .cls-1 {
        fill: #fff;
        fill-rule: evenodd;
      }
    </style>
  </defs>
  <g id="Layer_1-2" data-name="Layer 1">
    <g>
      <path class="cls-1" d="M115.99,0V223.32l50.53,16.04V52.05c0-8.75,3.91-14.63,10.24-12.61,8.24,2.3,9.84,10.38,9.84,19.15v74.8c31.51,15.2,56.29-.02,56.29-40.15s-14.5-59.49-57.3-74.15C168.77,13.41,137.47,3.99,115.99,0Z"/>
      <path class="cls-1" d="M176.08,206.71l81.28-28.95c9.24-3.31,10.64-7.99,3.15-10.44-7.49-2.46-21.04-1.74-30.26,1.56l-54.17,19.09v-30.37l3.15-1.06s15.64-5.52,37.62-7.96c22.01-2.42,48.95,.35,70.12,8.36,23.82,7.53,26.5,18.63,20.45,26.26-6.06,7.64-20.9,13.09-20.9,13.09l-110.45,39.68v-29.25Z"/>
      <path class="cls-1" d="M23.28,203.64c-24.46-6.9-28.53-21.23-17.39-29.5,10.33-7.65,27.86-13.39,27.86-13.39l72.42-25.74v29.35l-52.11,18.64c-9.23,3.33-10.63,8-3.15,10.44,7.49,2.44,21.05,1.76,30.27-1.54l24.98-9.08v26.27c-1.59,.29-3.35,.57-4.99,.85-25.01,4.07-51.63,2.39-77.9-6.27Z"/>
    </g>
  </g>
</svg>