<?xml version="1.0" encoding="UTF-8"?>
<svg id="Layer_2" data-name="Layer 2" xmlns="http://www.w3.org/2000/svg" viewBox="0 0 1920 1080">
  <defs>
    <style>
      .cls-1 {
        fill: #232323;
      }

      .cls-2 {
        fill: #85c776;
      }

      .cls-3 {
        fill: #f286b6;
      }
    </style>
  </defs>
  <g id="Layer_1-2" data-name="Layer 1">
    <rect class="cls-3" x="0" width="1920" height="1080"/>
    <g>
      <circle class="cls-1" cx="438.33" cy="540" r="298.3"/>
      <circle class="cls-3" cx="437.87" cy="540" r="284.23"/>
      <path class="cls-1" d="M613.07,498.38c-21.59-28.08-36.92-60.48-45.01-94.97-2.27-9.66-4.5-19.1-6.31-26.56-12.71-52.41-58.42-96.43-122.96-96.43s-102.03,44.53-115.34,93.66c-2.28,8.4-5.11,19.23-7.93,30.13-8.95,34.66-25.25,67-47.81,94.79-.73,.9-1.45,1.79-2.17,2.66-20.45,24.83-29.86,56.99-25.87,88.91,.25,2.04,.67,4.23,1.13,6.36,1.53,6.98,4.31,13.61,8.17,19.62,4.18,6.51,10.07,15.26,14.32,19.78,2.98-39.1,13.01-77.7,26.84-87.35,25.69-17.94,53.42,2.1,87.02,6.67,31.37,0,33.23-32.39,33.23-55.69-19.84-7.27-33.95-20.93-37.86-40.62,34.39-8.08,77.5-36.04,100.55-68.73,14.55,16.24,24.35,29.58,40.55,35.23-1.29,34.8-16.68,64.07-48.26,74.77,0,24.07,6.34,55.21,37.87,55.21,30.09,.37,55.8-31.26,80.27-6.85,12.88,12.84,23.26,49.09,27.38,85.49,3.45-3.52,8.74-9.93,12.68-14.82,4.54-5.63,8.1-12.01,10.33-18.89,.34-1.06,.65-2.1,.89-3.1,8.36-34.36,.36-70.66-21.22-98.67-.16-.2-.31-.41-.47-.61Z"/>
      <path class="cls-1" d="M549.84,630.99c7.37,11.39,12.16,24.47,13.61,38.46-10.39-21.92-33.26-37.14-59.81-37.14-33.68,0-61.45,24.51-65.3,56.11-3.86-31.6-31.62-56.11-65.3-56.11-26.55,0-49.42,15.23-59.81,37.14,1.44-13.99,6.23-27.07,13.61-38.46,.35-.54-.44-1.07-.85-.57-13.31,16.21-20.93,36.93-20.08,59.25,.4,10.35,1.37,17.64,4.3,25.17,5.79,18.08,19.7,32.71,37.59,39.91,4.07,13.37,3.96,46.25,.32,59.3,18.55,8.56,38.3,14.98,90.69,14.98s78.48-6.42,90.74-15.73c-3-13.3-3.03-46.14,.3-58.95,17.43-7.34,30.94-21.76,36.62-39.52,2.93-7.53,3.9-14.82,4.3-25.17,.85-22.32-6.77-43.03-20.08-59.25-.41-.49-1.2,.04-.85,.57Z"/>
      <path class="cls-1" d="M449.73,452.34c-6.67,0-11.39,5.52-11.39,5.52,0,0-3.81-5.56-11.39-5.56s-8.64,8.48-16.35,8.48c0,8.74,11.59,21.23,27.74,21.23s27.74-12.49,27.74-21.23c-8.4,0-9.67-8.43-16.35-8.43Zm-2.76,15.94c-.79,2.53-3.08,10.75-8.64,10.75s-7.84-8.22-8.64-10.75c-4.89-.54-8.65-1.89-10.26-2.55-.14-.06-.08-.26,.06-.24,2.52,.34,10,1.25,18.83,1.25s16.32-.91,18.83-1.25c.14-.02,.19,.18,.06,.24-1.6,.65-5.36,2-10.26,2.55Z"/>
      <g>
        <circle class="cls-1" cx="438.08" cy="575.21" r="39.77"/>
        <rect class="cls-1" x="432.86" y="560.97" width="10.95" height="238.17"/>
        <path class="cls-2" d="M452.23,607.8c-4.15,1.03-8.4,1.31-12.65,.84-4.82-.53-9.43-2.01-13.7-4.39-3.46-1.93-6.44-4.49-8.85-7.59-2.33-3-4.04-6.37-5.08-10.04-.74-2.63-1.12-5.3-1.12-8,0-1.07,.06-2.14,.18-3.21,.43-3.91,1.63-7.64,3.56-11.1,1.57-2.81,3.65-5.23,6.17-7.19,2.44-1.89,5.18-3.28,8.16-4.13,2.98-.84,6.05-1.1,9.11-.76,3.18,.35,6.21,1.32,9.02,2.89,4.54,2.54,7.82,6.69,9.24,11.69,1.42,5,.8,10.26-1.74,14.8-2.08,3.72-5.48,6.41-9.58,7.57-4.1,1.16-8.41,.65-12.13-1.42-3.06-1.71-5.28-4.52-6.23-7.89-.96-3.38-.54-6.93,1.17-9.99,1.42-2.54,3.74-4.37,6.54-5.17,2.8-.79,5.74-.45,8.28,.97,4.38,2.45,5.95,8,3.5,12.37-2.06,3.68-6.73,5.01-10.41,2.95-3.13-1.75-4.25-5.72-2.5-8.85,.51-.91,1.66-1.24,2.58-.73,.91,.51,1.24,1.66,.73,2.58-.73,1.31-.26,2.96,1.04,3.69,1.86,1.04,4.22,.37,5.26-1.49,1.43-2.55,.51-5.79-2.04-7.22-1.66-.93-3.57-1.15-5.4-.63-1.83,.52-3.34,1.71-4.27,3.37-1.22,2.18-1.52,4.71-.83,7.11,.68,2.4,2.26,4.4,4.44,5.62,5.86,3.27,13.28,1.17,16.55-4.69,4.22-7.55,1.51-17.12-6.04-21.34-4.68-2.62-10.1-3.25-15.26-1.79-5.16,1.46-9.44,4.84-12.06,9.52-2.16,3.86-3.26,8.13-3.26,12.43,0,2.34,.32,4.69,.98,7,1.86,6.57,6.17,12.02,12.13,15.36,14.05,7.85,31.49,4.1,41.2-8.11,2.98-5.2,4.68-11.21,4.68-17.63,0-19.62-15.9-35.52-35.52-35.52s-35.52,15.9-35.52,35.52,15.9,35.52,35.52,35.52c5.03,0,9.81-1.04,14.14-2.93Z"/>
      </g>
    </g>
    <g>
      <g>
        <path class="cls-1" d="M950.73,442.7c0-9.08-3.22-16.16-9.65-21.24-6.43-5.07-17.73-10.32-33.89-15.75-16.17-5.43-29.38-10.68-39.64-15.75-33.39-16.4-50.08-38.94-50.08-67.61,0-14.28,4.16-26.87,12.48-37.79,8.32-10.91,20.09-19.41,35.31-25.48,15.22-6.07,32.33-9.11,51.32-9.11s35.13,3.3,49.82,9.91c14.69,6.61,26.1,16.02,34.25,28.23,8.14,12.21,12.21,26.17,12.21,41.86h-61.94c0-10.5-3.22-18.64-9.65-24.42-6.43-5.78-15.13-8.67-26.11-8.67s-19.85,2.45-26.28,7.35c-6.43,4.9-9.65,11.12-9.65,18.67,0,6.61,3.54,12.59,10.62,17.96,7.08,5.37,19.53,10.91,37.34,16.64,17.81,5.72,32.44,11.89,43.89,18.49,27.84,16.05,41.77,38.17,41.77,66.37,0,22.54-8.49,40.23-25.48,53.09-16.99,12.86-40.29,19.29-69.91,19.29-20.88,0-39.79-3.74-56.72-11.24-16.93-7.49-29.68-17.76-38.23-30.79-8.56-13.04-12.83-28.05-12.83-45.04h62.3c0,13.81,3.57,23.98,10.71,30.53,7.14,6.55,18.73,9.82,34.78,9.82,10.26,0,18.38-2.21,24.33-6.64,5.96-4.42,8.94-10.65,8.94-18.67Z"/>
        <path class="cls-1" d="M1207.35,432.61l19.29-112.91h57.16l-45.13,191.49h-50.44l-31.68-113.62-31.86,113.62h-50.44l-45.13-191.49h57.16l18.94,115.57,30.44-115.57h41.59l30.09,112.91Z"/>
        <path class="cls-1" d="M1397.78,514.73c-29.38,0-53.16-8.76-71.32-26.28-18.17-17.52-27.25-40.32-27.25-68.4v-4.95c0-19.59,3.63-36.87,10.88-51.86,7.26-14.98,17.84-26.57,31.77-34.78,13.92-8.2,30.44-12.3,49.55-12.3,26.9,0,48.14,8.35,63.71,25.04,15.57,16.7,23.36,39.97,23.36,69.82v23.19h-118.58c2.12,10.74,6.78,19.17,13.98,25.31,7.19,6.14,16.52,9.2,27.96,9.2,18.88,0,33.63-6.61,44.24-19.82l27.26,32.21c-7.43,10.26-17.96,18.44-31.59,24.51-13.63,6.08-28.29,9.11-43.98,9.11Zm-6.73-152.56c-17.46,0-27.85,11.56-31.15,34.69h60.17v-4.6c.23-9.56-2.18-16.96-7.26-22.21-5.07-5.25-12.33-7.88-21.77-7.88Z"/>
        <path class="cls-1" d="M1595.11,514.73c-29.38,0-53.16-8.76-71.32-26.28-18.17-17.52-27.25-40.32-27.25-68.4v-4.95c0-19.59,3.63-36.87,10.88-51.86,7.26-14.98,17.84-26.57,31.77-34.78,13.92-8.2,30.44-12.3,49.55-12.3,26.9,0,48.14,8.35,63.71,25.04,15.57,16.7,23.36,39.97,23.36,69.82v23.19h-118.58c2.12,10.74,6.78,19.17,13.98,25.31,7.19,6.14,16.52,9.2,27.96,9.2,18.88,0,33.63-6.61,44.24-19.82l27.26,32.21c-7.43,10.26-17.96,18.44-31.59,24.51-13.63,6.08-28.29,9.11-43.98,9.11Zm-6.73-152.56c-17.46,0-27.85,11.56-31.15,34.69h60.17v-4.6c.23-9.56-2.18-16.96-7.26-22.21-5.07-5.25-12.33-7.88-21.77-7.88Z"/>
        <path class="cls-1" d="M1769.26,272.09v47.61h31.5v41.41h-31.5v87.61c0,7.2,1.3,12.21,3.89,15.04,2.59,2.83,7.73,4.25,15.4,4.25,5.9,0,10.85-.35,14.86-1.06v42.65c-10.74,3.42-21.94,5.13-33.62,5.13-20.53,0-35.69-4.84-45.48-14.51-9.79-9.67-14.69-24.36-14.69-44.07v-95.04h-24.42v-41.41h24.42v-47.61h59.64Z"/>
      </g>
      <g>
        <path class="cls-1" d="M817.71,826.49v-257.68h92.56c33.15,0,58.37,6.08,75.66,18.23,17.28,12.16,25.93,29.79,25.93,52.92,0,13.33-3.07,24.72-9.2,34.16-6.14,9.44-15.16,16.4-27.08,20.88,13.45,3.54,23.77,10.15,30.97,19.82,7.19,9.68,10.8,21.47,10.8,35.4,0,25.25-8,44.22-23.98,56.9-15.99,12.68-39.67,19.14-71.06,19.38h-104.6Zm62.12-150.26h32.39c13.57-.11,23.24-2.6,29.03-7.46,5.78-4.85,8.67-12.01,8.67-21.48,0-10.89-3.13-18.73-9.38-23.52-6.26-4.79-16.34-7.19-30.26-7.19h-30.44v59.64Zm0,40.71v61.77h40.71c11.21,0,19.82-2.57,25.84-7.7,6.02-5.13,9.03-12.36,9.03-21.68,0-21.47-10.68-32.27-32.03-32.39h-43.54Z"/>
        <path class="cls-1" d="M1156.62,826.49c-2.12-3.89-4.01-9.62-5.66-17.17-10.97,13.81-26.31,20.71-46.01,20.71-18.05,0-33.39-5.46-46.01-16.37-12.63-10.91-18.94-24.63-18.94-41.15,0-20.77,7.67-36.46,23.01-47.08,15.33-10.62,37.64-15.93,66.9-15.93h18.41v-10.14c0-17.67-7.61-26.5-22.83-26.5-14.16,0-21.24,7-21.24,20.99h-59.64c0-18.5,7.88-33.53,23.63-45.07,15.75-11.55,35.84-17.33,60.26-17.33s43.72,5.96,57.87,17.88c14.16,11.92,21.41,28.26,21.77,49.02v84.77c.23,17.58,2.95,31.03,8.14,40.35v3.01h-59.64Zm-37.34-38.94c7.43,0,13.6-1.59,18.5-4.78,4.89-3.19,8.4-6.78,10.53-10.79v-30.62h-17.34c-20.77,0-31.15,9.32-31.15,27.96,0,5.43,1.83,9.82,5.49,13.19,3.66,3.36,8.32,5.04,13.98,5.04Z"/>
        <path class="cls-1" d="M1418.91,732.34c0,31.39-6.49,55.51-19.47,72.38-12.98,16.87-31.27,25.31-54.86,25.31-19.47,0-35.16-7.73-47.08-23.18l-2.48,19.65h-53.45v-271.84h59.64v95.75c11.09-12.62,25.42-18.94,43.01-18.94,23.83,0,42.24,8.56,55.22,25.66,12.98,17.11,19.47,41.18,19.47,72.21v3.01Zm-59.82-3.8c0-18.37-2.45-31.48-7.35-39.31-4.9-7.83-12.42-11.75-22.57-11.75-13.45,0-22.77,5.12-27.96,15.37v75.97c5.07,10.13,14.51,15.2,28.32,15.2s22.95-6.83,26.73-20.5c1.88-6.72,2.83-18.38,2.83-34.99Z"/>
        <path class="cls-1" d="M1537.84,830.03c-29.38,0-53.16-8.76-71.32-26.28-18.17-17.52-27.25-40.32-27.25-68.4v-4.95c0-19.59,3.63-36.87,10.88-51.86,7.26-14.98,17.84-26.57,31.77-34.78,13.92-8.2,30.44-12.3,49.55-12.3,26.9,0,48.14,8.35,63.71,25.04,15.57,16.7,23.36,39.97,23.36,69.82v23.19h-118.58c2.12,10.74,6.78,19.17,13.98,25.31,7.19,6.14,16.51,9.2,27.96,9.2,18.88,0,33.63-6.61,44.24-19.82l27.26,32.21c-7.43,10.26-17.96,18.44-31.59,24.51-13.63,6.08-28.29,9.11-43.98,9.11Zm-6.73-152.56c-17.46,0-27.85,11.56-31.15,34.69h60.17v-4.6c.23-9.56-2.18-16.96-7.26-22.21-5.07-5.25-12.33-7.88-21.77-7.88Z"/>
      </g>
      <g>
        <path class="cls-1" d="M1703.28,829.19h-14.69v-61.1h14.69v61.1Z"/>
        <path class="cls-1" d="M1725.86,783.78l.46,5.33c3.13-4.11,7.46-6.17,12.97-6.17,4.73,0,8.26,1.41,10.6,4.24,2.34,2.83,3.55,7.08,3.63,12.76v29.25h-14.18v-28.66c0-2.29-.46-3.98-1.38-5.06-.92-1.08-2.6-1.61-5.04-1.61-2.77,0-4.83,1.09-6.17,3.27v32.06h-14.14v-45.41h13.26Z"/>
        <path class="cls-1" d="M1780.55,819.12c1.99,0,3.53-.54,4.62-1.61,1.09-1.08,1.62-2.58,1.59-4.51h13.26c0,4.98-1.78,9.06-5.35,12.25-3.57,3.19-8.16,4.78-13.79,4.78-6.6,0-11.81-2.07-15.61-6.21-3.81-4.14-5.71-9.88-5.71-17.21v-.59c0-4.59,.85-8.64,2.54-12.15,1.69-3.51,4.13-6.21,7.32-8.1,3.19-1.89,6.97-2.83,11.33-2.83,5.9,0,10.59,1.64,14.06,4.91,3.47,3.27,5.2,7.71,5.2,13.3h-13.26c0-2.35-.57-4.15-1.72-5.41-1.15-1.26-2.69-1.89-4.62-1.89-3.67,0-5.81,2.34-6.42,7.01-.2,1.48-.29,3.53-.29,6.13,0,4.56,.55,7.72,1.64,9.48,1.09,1.76,2.83,2.64,5.2,2.64Z"/>
      </g>
    </g>
  </g>
</svg>