<?xml version="1.0" encoding="UTF-8"?>
<svg id="Layer_2" data-name="Layer 2" xmlns="http://www.w3.org/2000/svg" viewBox="0 0 2471 2497.89">
  <defs>
    <style>
      .cls-1 {
        fill: #fff;
      }
    </style>
  </defs>
  <g id="Layer_1-2" data-name="Layer 1">
    <path class="cls-1" d="M1233.37,0C583.19,0,50.58,505.9,0,1148.76l663.35,276.77c57.92-40.09,126.71-61.53,197.16-61.45,6.58,0,13.09,.18,19.5,.54l295.03-431.56v-6.04c0-259.68,209.36-471,466.72-471s466.71,211.32,466.71,471-209.36,471.07-466.71,471.07c-3.57,0-7.05-.09-10.6-.17l-420.77,302.86c.27,5.62,.44,11.23,.44,16.75,0,195.02-157.17,353.62-350.32,353.62-169.55,0-311.41-122.18-343.47-283.89L42.57,1589.3c146.94,524.25,624.25,908.59,1190.8,908.59,683.56,0,1237.63-559.24,1237.63-1248.95S1916.93,0,1233.37,0Zm-457.78,1895.06l-152.01-63.4c26.9,56.63,73.56,104,135.45,130.02,133.75,56.27,287.99-7.75,343.74-142.84,26.99-64.96,27.15-137.96,.44-203.04-26.72-65.54-77.21-116.66-141.95-143.91-64.38-26.98-133.31-26-193.87-2.93l157.09,65.54c98.67,41.51,145.33,155.84,104.19,255.4-41.05,99.55-154.42,146.67-253.08,105.16h0ZM1952.76,927.03c0-173.02-139.54-313.89-310.97-313.89s-311.06,140.88-311.06,313.89,139.54,313.82,311.06,313.82,310.97-140.79,310.97-313.82Zm-544.1-.53c0-130.19,104.63-235.71,233.59-235.71s233.66,105.52,233.66,235.71-104.63,235.72-233.67,235.72-233.59-105.53-233.59-235.71h0Z"/>
  </g>
</svg>