<?xml version="1.0" encoding="UTF-8"?>
<svg id="Layer_2" data-name="Layer 2" xmlns="http://www.w3.org/2000/svg" viewBox="0 0 962 967.05">
  <defs>
    <style>
      .cls-1 {
        fill: #232323;
      }

      .cls-2 {
        fill: #85c776;
      }

      .cls-3 {
        fill: #f286b6;
      }
    </style>
  </defs>
  <g id="Layer_1-2" data-name="Layer 1">
    <g>
      <circle class="cls-1" cx="481" cy="393.48" r="393.48"/>
      <circle class="cls-3" cx="480.38" cy="393.48" r="374.91"/>
      <path class="cls-1" d="M711.49,338.58c-28.48-37.04-48.69-79.78-59.37-125.27-2.99-12.74-5.94-25.19-8.33-35.03-16.76-69.13-77.06-127.2-162.2-127.2s-134.59,58.74-152.14,123.54c-3,11.08-6.74,25.36-10.46,39.75-11.81,45.71-33.3,88.37-63.06,125.03-.96,1.19-1.92,2.36-2.86,3.5-26.97,32.76-39.39,75.17-34.13,117.27,.34,2.68,.88,5.58,1.49,8.39,2.02,9.2,5.69,17.96,10.77,25.88,5.51,8.59,13.29,20.14,18.88,26.1,3.94-51.58,17.16-102.49,35.4-115.22,33.89-23.66,70.46,2.77,114.79,8.8,41.38,0,43.84-42.72,43.84-73.45-26.17-9.58-44.78-27.61-49.94-53.57,45.36-10.66,102.23-47.54,132.63-90.66,19.2,21.43,32.12,39.01,53.49,46.47-1.7,45.9-22.01,84.51-63.66,98.63,0,31.75,8.37,72.83,49.95,72.83,39.69,.49,73.6-41.23,105.89-9.03,16.99,16.94,30.68,64.76,36.11,112.77,4.55-4.65,11.53-13.1,16.73-19.55,5.99-7.43,10.68-15.84,13.62-24.91,.45-1.39,.85-2.77,1.17-4.09,11.03-45.32,.48-93.21-27.99-130.15-.21-.27-.41-.54-.62-.81Z"/>
      <path class="cls-1" d="M628.08,513.5c9.73,15.02,16.04,32.28,17.95,50.73-13.7-28.91-43.87-49-78.89-49-44.43,0-81.05,32.33-86.14,74.01-5.09-41.68-41.71-74.01-86.14-74.01-35.02,0-65.18,20.08-78.89,49,1.9-18.45,8.22-35.71,17.95-50.73,.46-.71-.58-1.41-1.12-.75-17.55,21.39-27.61,48.72-26.48,78.15,.52,13.65,1.81,23.27,5.67,33.2,7.64,23.85,25.98,43.14,49.58,52.64,5.37,17.64,5.22,61,.42,78.22,24.47,11.29,50.52,19.76,119.62,19.76s103.52-8.47,119.69-20.75c-3.96-17.54-4-60.87,.4-77.75,22.99-9.68,40.81-28.71,48.31-52.13,3.86-9.93,5.15-19.55,5.67-33.2,1.13-29.44-8.93-56.76-26.48-78.15-.54-.65-1.58,.05-1.12,.75Z"/>
      <path class="cls-1" d="M496.03,277.85c-8.8,0-15.03,7.28-15.03,7.28,0,0-5.03-7.34-15.03-7.34s-11.39,11.18-21.56,11.18c0,11.52,15.29,28,36.59,28s36.59-16.48,36.59-28c-11.08,0-12.76-11.12-21.56-11.12Zm-3.64,21.03c-1.04,3.33-4.06,14.18-11.39,14.18s-10.35-10.85-11.39-14.18c-6.46-.72-11.42-2.5-13.53-3.36-.18-.07-.11-.34,.08-.31,3.32,.45,13.19,1.65,24.84,1.65s21.52-1.2,24.84-1.65c.19-.03,.26,.24,.08,.31-2.11,.86-7.08,2.64-13.53,3.36Z"/>
      <g>
        <circle class="cls-1" cx="480.67" cy="439.92" r="52.47"/>
        <rect class="cls-1" x="473.78" y="421.14" width="14.44" height="314.16"/>
        <path class="cls-2" d="M499.32,482.92c-5.47,1.35-11.08,1.73-16.68,1.11-6.36-.7-12.44-2.65-18.07-5.79-4.56-2.55-8.49-5.92-11.67-10.01-3.07-3.95-5.33-8.41-6.7-13.25-.98-3.46-1.47-7-1.47-10.55,0-1.41,.08-2.82,.23-4.24,.57-5.15,2.15-10.08,4.7-14.64,2.07-3.71,4.81-6.9,8.14-9.49,3.21-2.5,6.84-4.33,10.77-5.44s7.98-1.45,12.02-1.01c4.19,.46,8.19,1.74,11.9,3.82,5.99,3.35,10.31,8.82,12.18,15.42,1.87,6.6,1.05,13.53-2.29,19.52-2.74,4.91-7.23,8.45-12.64,9.98s-11.09,.86-16-1.88c-4.04-2.26-6.96-5.96-8.22-10.41-1.26-4.46-.71-9.13,1.55-13.18,1.87-3.35,4.94-5.77,8.63-6.82,3.69-1.05,7.57-.59,10.92,1.28,5.77,3.23,7.84,10.55,4.62,16.32-2.72,4.86-8.88,6.6-13.74,3.89-4.13-2.31-5.61-7.54-3.3-11.67,.67-1.2,2.19-1.64,3.4-.96,1.2,.67,1.64,2.19,.96,3.4-.96,1.72-.34,3.91,1.38,4.87,2.45,1.37,5.57,.49,6.94-1.96,1.88-3.37,.67-7.64-2.69-9.52-2.19-1.22-4.71-1.52-7.12-.84-2.41,.68-4.41,2.26-5.63,4.45-1.61,2.88-2,6.21-1.1,9.38,.9,3.17,2.98,5.8,5.85,7.41,7.72,4.32,17.52,1.54,21.84-6.18,5.56-9.96,1.99-22.58-7.97-28.15-6.17-3.45-13.32-4.29-20.13-2.36-6.81,1.93-12.45,6.39-15.9,12.56-2.85,5.1-4.3,10.72-4.3,16.4,0,3.08,.43,6.19,1.29,9.23,2.45,8.67,8.13,15.86,16,20.25,18.53,10.36,41.53,5.41,54.34-10.7,3.93-6.85,6.17-14.79,6.17-23.26,0-25.88-20.98-46.86-46.86-46.86s-46.86,20.98-46.86,46.86,20.98,46.86,46.86,46.86c6.63,0,12.94-1.38,18.66-3.86Z"/>
      </g>
    </g>
    <g>
      <g>
        <path class="cls-1" d="M71.1,930.74c0-4.58-1.62-8.15-4.86-10.71-3.24-2.56-8.94-5.2-17.08-7.94-8.15-2.74-14.81-5.38-19.98-7.94-16.83-8.27-25.25-19.63-25.25-34.08,0-7.2,2.1-13.55,6.29-19.05,4.19-5.5,10.13-9.78,17.8-12.85,7.67-3.06,16.3-4.59,25.87-4.59s17.71,1.67,25.11,5c7.4,3.33,13.16,8.07,17.26,14.23,4.1,6.16,6.16,13.19,6.16,21.1h-31.22c0-5.29-1.62-9.4-4.86-12.31-3.24-2.91-7.63-4.37-13.16-4.37s-10.01,1.23-13.25,3.7c-3.24,2.47-4.86,5.61-4.86,9.41,0,3.33,1.78,6.35,5.35,9.05,3.57,2.71,9.84,5.5,18.82,8.39,8.98,2.88,16.36,5.99,22.13,9.32,14.04,8.09,21.05,19.24,21.05,33.46,0,11.36-4.28,20.28-12.85,26.76-8.56,6.48-20.31,9.72-35.24,9.72-10.53,0-20.06-1.89-28.59-5.67-8.54-3.78-14.96-8.95-19.27-15.52-4.31-6.57-6.47-14.14-6.47-22.71H31.4c0,6.96,1.8,12.09,5.4,15.39,3.6,3.3,9.44,4.95,17.53,4.95,5.17,0,9.26-1.12,12.27-3.35,3-2.23,4.51-5.37,4.51-9.41Z"/>
        <path class="cls-1" d="M200.46,925.65l9.72-56.92h28.82l-22.75,96.53h-25.43l-15.97-57.28-16.06,57.28h-25.43l-22.75-96.53h28.82l9.55,58.26,15.35-58.26h20.97l15.17,56.92Z"/>
        <path class="cls-1" d="M296.46,967.05c-14.81,0-26.8-4.42-35.95-13.25-9.16-8.83-13.74-20.32-13.74-34.48v-2.5c0-9.87,1.83-18.59,5.49-26.14,3.66-7.55,9-13.4,16.01-17.53,7.02-4.13,15.35-6.2,24.98-6.2,13.56,0,24.27,4.21,32.12,12.62,7.85,8.42,11.78,20.15,11.78,35.19v11.69h-59.77c1.07,5.41,3.42,9.67,7.05,12.76,3.63,3.09,8.33,4.64,14.1,4.64,9.52,0,16.95-3.33,22.3-9.99l13.74,16.24c-3.75,5.17-9.06,9.29-15.92,12.36-6.87,3.06-14.26,4.59-22.17,4.59Zm-3.39-76.9c-8.8,0-14.04,5.83-15.7,17.49h30.33v-2.32c.12-4.82-1.1-8.55-3.66-11.2-2.56-2.65-6.22-3.97-10.97-3.97Z"/>
        <path class="cls-1" d="M395.93,967.05c-14.81,0-26.8-4.42-35.95-13.25-9.16-8.83-13.74-20.32-13.74-34.48v-2.5c0-9.87,1.83-18.59,5.49-26.14,3.66-7.55,9-13.4,16.01-17.53,7.02-4.13,15.35-6.2,24.98-6.2,13.56,0,24.27,4.21,32.12,12.62,7.85,8.42,11.78,20.15,11.78,35.19v11.69h-59.77c1.07,5.41,3.42,9.67,7.05,12.76,3.63,3.09,8.33,4.64,14.1,4.64,9.52,0,16.95-3.33,22.3-9.99l13.74,16.24c-3.75,5.17-9.06,9.29-15.92,12.36-6.87,3.06-14.26,4.59-22.17,4.59Zm-3.39-76.9c-8.8,0-14.04,5.83-15.7,17.49h30.33v-2.32c.12-4.82-1.1-8.55-3.66-11.2-2.56-2.65-6.22-3.97-10.97-3.97Z"/>
        <path class="cls-1" d="M483.72,844.73v24h15.88v20.88h-15.88v44.16c0,3.63,.65,6.16,1.96,7.58,1.31,1.43,3.89,2.14,7.76,2.14,2.97,0,5.47-.18,7.49-.54v21.5c-5.41,1.72-11.06,2.59-16.95,2.59-10.35,0-17.99-2.44-22.93-7.31-4.94-4.88-7.41-12.28-7.41-22.21v-47.91h-12.31v-20.88h12.31v-24h30.07Z"/>
        <path class="cls-1" d="M558.3,965.26v-129.9h46.66c16.71,0,29.43,3.06,38.14,9.19,8.71,6.13,13.07,15.02,13.07,26.68,0,6.72-1.55,12.46-4.64,17.22-3.09,4.76-7.64,8.27-13.65,10.53,6.78,1.78,11.98,5.12,15.61,9.99,3.63,4.88,5.44,10.83,5.44,17.84,0,12.73-4.03,22.29-12.09,28.68-8.06,6.39-20,9.65-35.82,9.77h-52.73Zm31.31-75.74h16.33c6.84-.06,11.72-1.31,14.63-3.76,2.91-2.44,4.37-6.05,4.37-10.83,0-5.49-1.58-9.44-4.73-11.86-3.15-2.42-8.24-3.62-15.26-3.62h-15.35v30.06Zm0,20.52v31.14h20.52c5.65,0,9.99-1.29,13.03-3.88,3.03-2.59,4.55-6.23,4.55-10.93,0-10.83-5.38-16.27-16.15-16.33h-21.95Z"/>
        <path class="cls-1" d="M729.15,965.26c-1.07-1.96-2.02-4.85-2.85-8.65-5.53,6.96-13.26,10.44-23.2,10.44-9.1,0-16.83-2.75-23.2-8.25-6.36-5.5-9.55-12.41-9.55-20.74,0-10.47,3.87-18.38,11.6-23.73,7.73-5.35,18.97-8.03,33.72-8.03h9.28v-5.11c0-8.91-3.84-13.36-11.51-13.36-7.14,0-10.71,3.53-10.71,10.58h-30.07c0-9.33,3.97-16.9,11.91-22.72,7.94-5.82,18.07-8.73,30.38-8.73s22.04,3,29.17,9.01c7.14,6.01,10.8,14.25,10.97,24.71v42.73c.12,8.86,1.49,15.64,4.1,20.34v1.52h-30.07Zm-18.82-19.63c3.75,0,6.85-.8,9.32-2.41,2.47-1.61,4.24-3.42,5.31-5.44v-15.43h-8.74c-10.47,0-15.7,4.7-15.7,14.1,0,2.74,.92,4.95,2.77,6.65,1.84,1.69,4.19,2.54,7.05,2.54Z"/>
        <path class="cls-1" d="M861.37,917.8c0,15.82-3.27,27.98-9.81,36.49-6.54,8.51-15.76,12.76-27.66,12.76-9.81,0-17.72-3.89-23.73-11.69l-1.25,9.9h-26.94v-137.03h30.07v48.26c5.59-6.36,12.82-9.55,21.68-9.55,12.01,0,21.29,4.31,27.84,12.94,6.54,8.63,9.81,20.76,9.81,36.4v1.52Zm-30.15-1.92c0-9.26-1.23-15.87-3.7-19.82-2.47-3.95-6.26-5.92-11.38-5.92-6.78,0-11.48,2.58-14.1,7.75v38.3c2.56,5.11,7.31,7.66,14.27,7.66s11.57-3.44,13.47-10.33c.95-3.39,1.43-9.26,1.43-17.64Z"/>
        <path class="cls-1" d="M921.32,967.05c-14.81,0-26.8-4.42-35.95-13.25-9.16-8.83-13.74-20.32-13.74-34.48v-2.5c0-9.87,1.83-18.59,5.49-26.14,3.66-7.55,8.99-13.4,16.01-17.53,7.02-4.13,15.34-6.2,24.98-6.2,13.56,0,24.27,4.21,32.12,12.62,7.85,8.42,11.78,20.15,11.78,35.19v11.69h-59.77c1.07,5.41,3.42,9.67,7.05,12.76,3.63,3.09,8.33,4.64,14.09,4.64,9.52,0,16.95-3.33,22.3-9.99l13.74,16.24c-3.75,5.17-9.05,9.29-15.92,12.36-6.87,3.06-14.26,4.59-22.17,4.59Zm-3.39-76.9c-8.8,0-14.04,5.83-15.7,17.49h30.33v-2.32c.12-4.82-1.1-8.55-3.66-11.2-2.56-2.65-6.22-3.97-10.97-3.97Z"/>
      </g>
      <g>
        <path class="cls-1" d="M913.24,859.03h-7.4v-30.8h7.4v30.8Z"/>
        <path class="cls-1" d="M924.62,836.14l.23,2.69c1.58-2.07,3.76-3.11,6.54-3.11,2.38,0,4.16,.71,5.34,2.14,1.18,1.43,1.79,3.57,1.83,6.43v14.75h-7.15v-14.45c0-1.16-.23-2.01-.7-2.55-.47-.54-1.31-.81-2.54-.81-1.4,0-2.43,.55-3.11,1.65v16.16h-7.13v-22.89h6.69Z"/>
        <path class="cls-1" d="M952.18,853.96c1,0,1.78-.27,2.33-.81,.55-.54,.82-1.3,.8-2.27h6.69c0,2.51-.9,4.57-2.7,6.18-1.8,1.61-4.11,2.41-6.95,2.41-3.33,0-5.95-1.04-7.87-3.13-1.92-2.09-2.88-4.98-2.88-8.67v-.3c0-2.31,.43-4.35,1.28-6.12,.85-1.77,2.08-3.13,3.69-4.08,1.61-.95,3.51-1.43,5.71-1.43,2.98,0,5.34,.83,7.09,2.48,1.75,1.65,2.62,3.89,2.62,6.71h-6.69c0-1.18-.29-2.09-.87-2.73-.58-.63-1.35-.95-2.33-.95-1.85,0-2.93,1.18-3.24,3.53-.1,.75-.15,1.78-.15,3.09,0,2.3,.28,3.89,.83,4.78s1.42,1.33,2.62,1.33Z"/>
      </g>
    </g>
  </g>
</svg>