<?xml version="1.0" encoding="UTF-8"?>
<svg id="Layer_2" data-name="Layer 2" xmlns="http://www.w3.org/2000/svg" viewBox="0 0 786.96 786.96">
  <defs>
    <style>
      .cls-1 {
        fill: #232323;
      }

      .cls-2 {
        fill: #85c776;
      }

      .cls-3 {
        fill: #f286b6;
      }
    </style>
  </defs>
  <g id="Layer_1-2" data-name="Layer 1">
    <g>
      <circle class="cls-1" cx="393.48" cy="393.48" r="393.48"/>
      <circle class="cls-3" cx="392.86" cy="393.48" r="374.91"/>
      <path class="cls-1" d="M623.97,338.58c-28.48-37.04-48.69-79.78-59.37-125.27-2.99-12.74-5.94-25.19-8.33-35.03-16.76-69.13-77.06-127.2-162.2-127.2s-134.59,58.74-152.14,123.54c-3,11.08-6.74,25.36-10.46,39.75-11.81,45.71-33.3,88.37-63.06,125.03-.96,1.19-1.92,2.36-2.86,3.5-26.97,32.76-39.39,75.17-34.13,117.27,.34,2.68,.88,5.58,1.49,8.39,2.02,9.2,5.69,17.96,10.77,25.88,5.51,8.59,13.29,20.14,18.88,26.1,3.94-51.58,17.16-102.49,35.4-115.22,33.89-23.66,70.46,2.77,114.79,8.8,41.38,0,43.84-42.72,43.84-73.45-26.17-9.58-44.78-27.61-49.94-53.57,45.36-10.66,102.23-47.54,132.63-90.66,19.2,21.43,32.12,39.01,53.49,46.47-1.7,45.9-22.01,84.51-63.66,98.63,0,31.75,8.37,72.83,49.95,72.83,39.69,.49,73.6-41.23,105.89-9.03,16.99,16.94,30.68,64.76,36.11,112.77,4.55-4.65,11.53-13.1,16.73-19.55,5.99-7.43,10.68-15.84,13.62-24.91,.45-1.39,.85-2.77,1.17-4.09,11.03-45.32,.48-93.21-27.99-130.15-.21-.27-.41-.54-.62-.81Z"/>
      <path class="cls-1" d="M540.56,513.5c9.73,15.02,16.04,32.28,17.95,50.73-13.7-28.91-43.87-49-78.89-49-44.43,0-81.05,32.33-86.14,74.01-5.09-41.68-41.71-74.01-86.14-74.01-35.02,0-65.18,20.08-78.89,49,1.9-18.45,8.22-35.71,17.95-50.73,.46-.71-.58-1.41-1.12-.75-17.55,21.39-27.61,48.72-26.48,78.15,.52,13.65,1.81,23.27,5.67,33.2,7.64,23.85,25.98,43.14,49.58,52.64,5.37,17.64,5.22,61,.42,78.22,24.47,11.29,50.52,19.76,119.62,19.76s103.52-8.47,119.69-20.75c-3.96-17.54-4-60.87,.4-77.75,22.99-9.68,40.81-28.71,48.31-52.13,3.86-9.93,5.15-19.55,5.67-33.2,1.13-29.44-8.93-56.76-26.48-78.15-.54-.65-1.58,.05-1.12,.75Z"/>
      <path class="cls-1" d="M408.5,277.85c-8.8,0-15.03,7.28-15.03,7.28,0,0-5.03-7.34-15.03-7.34s-11.39,11.18-21.56,11.18c0,11.52,15.29,28,36.59,28s36.59-16.48,36.59-28c-11.08,0-12.76-11.12-21.56-11.12Zm-3.64,21.03c-1.04,3.33-4.06,14.18-11.39,14.18s-10.35-10.85-11.39-14.18c-6.46-.72-11.42-2.5-13.53-3.36-.18-.07-.11-.34,.08-.31,3.32,.45,13.19,1.65,24.84,1.65s21.52-1.2,24.84-1.65c.19-.03,.26,.24,.08,.31-2.11,.86-7.08,2.64-13.53,3.36Z"/>
      <g>
        <circle class="cls-1" cx="393.14" cy="439.92" r="52.47"/>
        <rect class="cls-1" x="386.26" y="421.14" width="14.44" height="314.16"/>
        <path class="cls-2" d="M411.8,482.92c-5.47,1.35-11.08,1.73-16.68,1.11-6.36-.7-12.44-2.65-18.07-5.79-4.56-2.55-8.49-5.92-11.67-10.01-3.07-3.95-5.33-8.41-6.7-13.25-.98-3.46-1.47-7-1.47-10.55,0-1.41,.08-2.82,.23-4.24,.57-5.15,2.15-10.08,4.7-14.64,2.07-3.71,4.81-6.9,8.14-9.49,3.21-2.5,6.84-4.33,10.77-5.44s7.98-1.45,12.02-1.01c4.19,.46,8.19,1.74,11.9,3.82,5.99,3.35,10.31,8.82,12.18,15.42,1.87,6.6,1.05,13.53-2.29,19.52-2.74,4.91-7.23,8.45-12.64,9.98s-11.09,.86-16-1.88c-4.04-2.26-6.96-5.96-8.22-10.41-1.26-4.46-.71-9.13,1.55-13.18,1.87-3.35,4.94-5.77,8.63-6.82,3.69-1.05,7.57-.59,10.92,1.28,5.77,3.23,7.84,10.55,4.62,16.32-2.72,4.86-8.88,6.6-13.74,3.89-4.13-2.31-5.61-7.54-3.3-11.67,.67-1.2,2.19-1.64,3.4-.96,1.2,.67,1.64,2.19,.96,3.4-.96,1.72-.34,3.91,1.38,4.87,2.45,1.37,5.57,.49,6.94-1.96,1.88-3.37,.67-7.64-2.69-9.52-2.19-1.22-4.71-1.52-7.12-.84-2.41,.68-4.41,2.26-5.63,4.45-1.61,2.88-2,6.21-1.1,9.38,.9,3.17,2.98,5.8,5.85,7.41,7.72,4.32,17.52,1.54,21.84-6.18,5.56-9.96,1.99-22.58-7.97-28.15-6.17-3.45-13.32-4.29-20.13-2.36-6.81,1.93-12.45,6.39-15.9,12.56-2.85,5.1-4.3,10.72-4.3,16.4,0,3.08,.43,6.19,1.29,9.23,2.45,8.67,8.13,15.86,16,20.25,18.53,10.36,41.53,5.41,54.34-10.7,3.93-6.85,6.17-14.79,6.17-23.26,0-25.88-20.98-46.86-46.86-46.86s-46.86,20.98-46.86,46.86,20.98,46.86,46.86,46.86c6.63,0,12.94-1.38,18.66-3.86Z"/>
      </g>
    </g>
  </g>
</svg>