<?xml version="1.0" encoding="UTF-8"?>
<svg id="Layer_2" data-name="Layer 2" xmlns="http://www.w3.org/2000/svg" viewBox="0 0 1008.12 187.35">
  <defs>
    <style>
      .cls-1 {
        fill: #232323;
      }

      .cls-2 {
        fill: #85c776;
      }

      .cls-3 {
        fill: #f286b6;
      }
    </style>
  </defs>
  <g id="Layer_1-2" data-name="Layer 1">
    <g>
      <g>
        <circle class="cls-1" cx="93.68" cy="93.68" r="93.68"/>
        <circle class="cls-3" cx="93.53" cy="93.68" r="89.26"/>
        <path class="cls-1" d="M148.55,80.61c-6.78-8.82-11.59-18.99-14.13-29.82-.71-3.03-1.41-6-1.98-8.34-3.99-16.46-18.35-30.28-38.61-30.28s-32.04,13.99-36.22,29.41c-.71,2.64-1.6,6.04-2.49,9.46-2.81,10.88-7.93,21.04-15.01,29.77-.23,.28-.46,.56-.68,.83-6.42,7.8-9.38,17.9-8.13,27.92,.08,.64,.21,1.33,.36,2,.48,2.19,1.35,4.27,2.56,6.16,1.31,2.05,3.16,4.79,4.5,6.21,.94-12.28,4.09-24.4,8.43-27.43,8.07-5.63,16.77,.66,27.33,2.09,9.85,0,10.44-10.17,10.44-17.49-6.23-2.28-10.66-6.57-11.89-12.75,10.8-2.54,24.34-11.32,31.57-21.58,4.57,5.1,7.65,9.29,12.73,11.06-.41,10.93-5.24,20.12-15.16,23.48,0,7.56,1.99,17.34,11.89,17.34,9.45,.12,17.52-9.82,25.21-2.15,4.04,4.03,7.31,15.42,8.6,26.85,1.08-1.11,2.74-3.12,3.98-4.65,1.43-1.77,2.54-3.77,3.24-5.93,.11-.33,.2-.66,.28-.97,2.63-10.79,.11-22.19-6.66-30.98-.05-.06-.1-.13-.15-.19Z"/>
        <path class="cls-1" d="M128.69,122.25c2.32,3.58,3.82,7.69,4.27,12.08-3.26-6.88-10.44-11.66-18.78-11.66-10.58,0-19.3,7.7-20.51,17.62-1.21-9.92-9.93-17.62-20.51-17.62-8.34,0-15.52,4.78-18.78,11.66,.45-4.39,1.96-8.5,4.27-12.08,.11-.17-.14-.33-.27-.18-4.18,5.09-6.57,11.6-6.3,18.61,.12,3.25,.43,5.54,1.35,7.9,1.82,5.68,6.19,10.27,11.8,12.53,1.28,4.2,1.24,14.52,.1,18.62,5.83,2.69,12.03,4.71,28.48,4.71s24.64-2.02,28.5-4.94c-.94-4.18-.95-14.49,.09-18.51,5.47-2.3,9.71-6.83,11.5-12.41,.92-2.36,1.23-4.65,1.35-7.9,.27-7.01-2.13-13.51-6.3-18.61-.13-.16-.38,.01-.27,.18Z"/>
        <path class="cls-1" d="M97.25,66.15c-2.1,0-3.58,1.73-3.58,1.73,0,0-1.2-1.75-3.58-1.75s-2.71,2.66-5.13,2.66c0,2.74,3.64,6.67,8.71,6.67s8.71-3.92,8.71-6.67c-2.64,0-3.04-2.65-5.13-2.65Zm-.87,5.01c-.25,.79-.97,3.38-2.71,3.38s-2.46-2.58-2.71-3.38c-1.54-.17-2.72-.59-3.22-.8-.04-.02-.03-.08,.02-.07,.79,.11,3.14,.39,5.91,.39s5.12-.28,5.91-.39c.05,0,.06,.06,.02,.07-.5,.21-1.68,.63-3.22,.8Z"/>
        <g>
          <circle class="cls-1" cx="93.6" cy="104.73" r="12.49"/>
          <rect class="cls-1" x="91.96" y="100.26" width="3.44" height="74.79"/>
          <path class="cls-2" d="M98.04,114.97c-1.3,.32-2.64,.41-3.97,.27-1.51-.17-2.96-.63-4.3-1.38-1.09-.61-2.02-1.41-2.78-2.38-.73-.94-1.27-2-1.59-3.15-.23-.82-.35-1.67-.35-2.51,0-.34,.02-.67,.06-1.01,.13-1.23,.51-2.4,1.12-3.49,.49-.88,1.15-1.64,1.94-2.26,.76-.59,1.63-1.03,2.56-1.3s1.9-.35,2.86-.24c1,.11,1.95,.42,2.83,.91,1.43,.8,2.46,2.1,2.9,3.67,.44,1.57,.25,3.22-.55,4.65-.65,1.17-1.72,2.01-3.01,2.38s-2.64,.21-3.81-.45c-.96-.54-1.66-1.42-1.96-2.48-.3-1.06-.17-2.17,.37-3.14,.45-.8,1.18-1.37,2.05-1.62,.88-.25,1.8-.14,2.6,.31,1.37,.77,1.87,2.51,1.1,3.89-.65,1.16-2.11,1.57-3.27,.93-.98-.55-1.34-1.8-.79-2.78,.16-.29,.52-.39,.81-.23,.29,.16,.39,.52,.23,.81-.23,.41-.08,.93,.33,1.16,.58,.33,1.33,.12,1.65-.47,.45-.8,.16-1.82-.64-2.27-.52-.29-1.12-.36-1.7-.2-.57,.16-1.05,.54-1.34,1.06-.38,.68-.48,1.48-.26,2.23,.21,.75,.71,1.38,1.39,1.76,1.84,1.03,4.17,.37,5.2-1.47,1.32-2.37,.47-5.38-1.9-6.7-1.47-.82-3.17-1.02-4.79-.56-1.62,.46-2.96,1.52-3.79,2.99-.68,1.21-1.02,2.55-1.02,3.9,0,.73,.1,1.47,.31,2.2,.58,2.06,1.94,3.78,3.81,4.82,4.41,2.47,9.89,1.29,12.94-2.55,.93-1.63,1.47-3.52,1.47-5.54,0-6.16-4.99-11.16-11.16-11.16s-11.16,4.99-11.16,11.16,4.99,11.16,11.16,11.16c1.58,0,3.08-.33,4.44-.92Z"/>
        </g>
      </g>
      <g>
        <g>
          <path class="cls-1" d="M294.82,120.18c0-3.67-1.3-6.52-3.89-8.57-2.6-2.05-7.16-4.17-13.68-6.36-6.52-2.19-11.86-4.31-16-6.36-13.48-6.62-20.21-15.71-20.21-27.29,0-5.76,1.68-10.85,5.04-15.25,3.36-4.4,8.11-7.83,14.25-10.29,6.14-2.45,13.05-3.68,20.71-3.68s14.18,1.33,20.11,4,10.54,6.46,13.82,11.39c3.29,4.93,4.93,10.56,4.93,16.89h-25c0-4.24-1.3-7.52-3.89-9.86-2.6-2.33-6.11-3.5-10.54-3.5s-8.01,.99-10.61,2.96c-2.6,1.98-3.89,4.49-3.89,7.54,0,2.67,1.43,5.08,4.29,7.25,2.86,2.17,7.88,4.41,15.07,6.71,7.19,2.31,13.09,4.8,17.71,7.46,11.24,6.48,16.86,15.41,16.86,26.79,0,9.1-3.43,16.24-10.29,21.43-6.86,5.19-16.26,7.79-28.21,7.79-8.43,0-16.06-1.51-22.89-4.54-6.83-3.02-11.98-7.17-15.43-12.43-3.45-5.26-5.18-11.32-5.18-18.18h25.14c0,5.57,1.44,9.68,4.32,12.32,2.88,2.64,7.56,3.96,14.04,3.96,4.14,0,7.42-.89,9.82-2.68,2.4-1.79,3.61-4.3,3.61-7.54Z"/>
          <path class="cls-1" d="M398.4,116.11l7.79-45.57h23.07l-18.21,77.29h-20.36l-12.79-45.86-12.86,45.86h-20.36l-18.21-77.29h23.07l7.64,46.64,12.29-46.64h16.79l12.14,45.57Z"/>
          <path class="cls-1" d="M475.26,149.25c-11.86,0-21.45-3.54-28.79-10.61-7.33-7.07-11-16.27-11-27.61v-2c0-7.9,1.46-14.88,4.39-20.93,2.93-6.05,7.2-10.73,12.82-14.04,5.62-3.31,12.29-4.96,20-4.96,10.86,0,19.43,3.37,25.71,10.11,6.29,6.74,9.43,16.13,9.43,28.18v9.36h-47.86c.86,4.33,2.74,7.74,5.64,10.21,2.9,2.48,6.67,3.71,11.29,3.71,7.62,0,13.57-2.67,17.86-8l11,13c-3,4.14-7.25,7.44-12.75,9.89-5.5,2.45-11.42,3.68-17.75,3.68Zm-2.71-61.57c-7.05,0-11.24,4.67-12.57,14h24.29v-1.86c.09-3.86-.88-6.85-2.93-8.96-2.05-2.12-4.98-3.18-8.79-3.18Z"/>
          <path class="cls-1" d="M554.9,149.25c-11.86,0-21.45-3.54-28.79-10.61-7.33-7.07-11-16.27-11-27.61v-2c0-7.9,1.46-14.88,4.39-20.93,2.93-6.05,7.2-10.73,12.82-14.04,5.62-3.31,12.29-4.96,20-4.96,10.86,0,19.43,3.37,25.71,10.11,6.29,6.74,9.43,16.13,9.43,28.18v9.36h-47.86c.86,4.33,2.74,7.74,5.64,10.21,2.9,2.48,6.67,3.71,11.29,3.71,7.62,0,13.57-2.67,17.86-8l11,13c-3,4.14-7.25,7.44-12.75,9.89-5.5,2.45-11.42,3.68-17.75,3.68Zm-2.71-61.57c-7.05,0-11.24,4.67-12.57,14h24.29v-1.86c.09-3.86-.88-6.85-2.93-8.96-2.05-2.12-4.98-3.18-8.79-3.18Z"/>
          <path class="cls-1" d="M625.19,51.32v19.21h12.72v16.71h-12.72v35.36c0,2.91,.52,4.93,1.57,6.07,1.05,1.14,3.12,1.71,6.21,1.71,2.38,0,4.38-.14,6-.43v17.21c-4.33,1.38-8.86,2.07-13.57,2.07-8.29,0-14.41-1.95-18.36-5.86-3.95-3.9-5.93-9.83-5.93-17.79v-38.36h-9.86v-16.71h9.86v-19.21h24.07Z"/>
          <path class="cls-1" d="M684.9,147.82V43.82h37.36c13.38,0,23.56,2.45,30.54,7.36,6.98,4.91,10.46,12.02,10.46,21.36,0,5.38-1.24,9.98-3.71,13.79-2.48,3.81-6.12,6.62-10.93,8.43,5.43,1.43,9.59,4.1,12.5,8,2.9,3.91,4.36,8.67,4.36,14.29,0,10.19-3.23,17.85-9.68,22.96-6.45,5.12-16.01,7.73-28.68,7.82h-42.22Zm25.07-60.64h13.07c5.48-.05,9.38-1.05,11.72-3.01,2.33-1.96,3.5-4.85,3.5-8.67,0-4.39-1.26-7.56-3.79-9.49-2.52-1.93-6.6-2.9-12.21-2.9h-12.29v24.07Zm0,16.43v24.93h16.43c4.52,0,8-1.04,10.43-3.11,2.43-2.07,3.64-4.99,3.64-8.75,0-8.67-4.31-13.02-12.93-13.07h-17.57Z"/>
          <path class="cls-1" d="M821.69,147.82c-.86-1.57-1.62-3.88-2.29-6.93-4.43,5.57-10.62,8.36-18.57,8.36-7.29,0-13.48-2.2-18.57-6.61-5.1-4.4-7.64-9.94-7.64-16.61,0-8.38,3.1-14.71,9.29-19,6.19-4.29,15.19-6.43,27-6.43h7.43v-4.09c0-7.13-3.07-10.69-9.21-10.69-5.71,0-8.57,2.82-8.57,8.47h-24.07c0-7.47,3.18-13.53,9.54-18.19,6.36-4.66,14.46-6.99,24.32-6.99s17.64,2.41,23.36,7.21c5.71,4.81,8.64,11.41,8.79,19.79v34.22c.09,7.1,1.19,12.52,3.29,16.29v1.21h-24.07Zm-15.07-15.71c3,0,5.49-.64,7.47-1.93,1.97-1.29,3.39-2.74,4.25-4.36v-12.36h-7c-8.38,0-12.57,3.76-12.57,11.29,0,2.19,.74,3.96,2.21,5.32,1.48,1.36,3.36,2.04,5.64,2.04Z"/>
          <path class="cls-1" d="M927.55,109.82c0,12.67-2.62,22.41-7.86,29.21-5.24,6.81-12.62,10.21-22.14,10.21-7.86,0-14.19-3.12-19-9.36l-1,7.93h-21.57V38.1h24.07v38.64c4.48-5.1,10.26-7.64,17.36-7.64,9.62,0,17.05,3.45,22.29,10.36,5.24,6.91,7.86,16.62,7.86,29.14v1.21Zm-24.14-1.54c0-7.41-.99-12.7-2.96-15.87-1.98-3.16-5.01-4.74-9.11-4.74-5.43,0-9.19,2.07-11.29,6.2v30.66c2.05,4.09,5.86,6.13,11.43,6.13s9.26-2.76,10.79-8.27c.76-2.71,1.14-7.42,1.14-14.12Z"/>
          <path class="cls-1" d="M975.55,149.25c-11.86,0-21.45-3.54-28.79-10.61-7.33-7.07-11-16.27-11-27.61v-2c0-7.9,1.46-14.88,4.39-20.93,2.93-6.05,7.2-10.73,12.82-14.04,5.62-3.31,12.29-4.96,20-4.96,10.86,0,19.43,3.37,25.71,10.11,6.29,6.74,9.43,16.13,9.43,28.18v9.36h-47.86c.86,4.33,2.74,7.74,5.64,10.21,2.9,2.48,6.67,3.71,11.28,3.71,7.62,0,13.57-2.67,17.86-8l11,13c-3,4.14-7.25,7.44-12.75,9.89-5.5,2.45-11.42,3.68-17.75,3.68Zm-2.71-61.57c-7.05,0-11.24,4.67-12.57,14h24.29v-1.86c.09-3.86-.88-6.85-2.93-8.96-2.05-2.12-4.98-3.18-8.79-3.18Z"/>
        </g>
        <g>
          <path class="cls-1" d="M969.08,62.77h-5.93v-24.66h5.93v24.66Z"/>
          <path class="cls-1" d="M978.19,44.44l.19,2.15c1.26-1.66,3.01-2.49,5.23-2.49,1.91,0,3.33,.57,4.28,1.71,.94,1.14,1.43,2.86,1.47,5.15v11.81h-5.73v-11.57c0-.93-.19-1.61-.56-2.04-.37-.43-1.05-.65-2.03-.65-1.12,0-1.95,.44-2.49,1.32v12.94h-5.71v-18.33h5.35Z"/>
          <path class="cls-1" d="M1000.26,58.7c.8,0,1.42-.22,1.86-.65,.44-.43,.65-1.04,.64-1.82h5.35c0,2.01-.72,3.66-2.16,4.95-1.44,1.29-3.29,1.93-5.56,1.93-2.67,0-4.77-.84-6.3-2.51-1.54-1.67-2.3-3.99-2.3-6.94v-.24c0-1.85,.34-3.49,1.02-4.9,.68-1.42,1.67-2.51,2.96-3.27,1.29-.76,2.81-1.14,4.57-1.14,2.38,0,4.27,.66,5.67,1.98,1.4,1.32,2.1,3.11,2.1,5.37h-5.35c0-.95-.23-1.68-.69-2.19-.46-.51-1.08-.76-1.86-.76-1.48,0-2.34,.94-2.59,2.83-.08,.6-.12,1.42-.12,2.47,0,1.84,.22,3.12,.66,3.83s1.14,1.07,2.1,1.07Z"/>
        </g>
      </g>
    </g>
  </g>
</svg>