<?xml version="1.0" encoding="UTF-8"?>
<svg id="Layer_2" data-name="Layer 2" xmlns="http://www.w3.org/2000/svg" viewBox="0 0 390.53 391.39">
  <defs>
    <style>
      .cls-1 {
        fill: #fff;
        fill-rule: evenodd;
      }
    </style>
  </defs>
  <g id="Layer_1-2" data-name="Layer 1">
    <path class="cls-1" d="M249.07,107.62s0,.87,0,0v.87c39.05,46.85,115.42,158.81,100.67,204.8v.87h.86c25.18-32.98,39.92-73.77,39.92-118.03,0-53.8-21.69-103.28-58.15-138.85l-.87-.87c-1.73-1.74-22.56-7.81-82.44,51.21h0Zm-107.61,0s0,.87,0,0v.87c-39.05,46.85-115.42,158.81-100.67,204.8v.87h-.86C14.75,281.18,0,240.4,0,196.13,0,142.33,21.69,92.85,58.15,57.28l.87-.87c1.73-1.74,22.56-7.81,82.45,51.21h0ZM92.86,28.64C122.37,11.29,155.34,0,194.4,0h1.74c39.05,0,72.03,11.29,101.54,28.64,0,.87,.87,.87,0,.87h-.86c-37.32-7.82-95.47,24.29-100.67,27.77h0l-.87-.55-.87,.55h0c-5.2-3.48-63.35-35.58-100.67-27.77h-.86c-.87,0,0,0,0-.87h0Zm101.54,128.44q.87,0,0,0l.87,.67,.87-.67q-.87,0,0,0h0c59.01,45.13,158.81,154.49,128.44,185.72-34.71,30.37-78.97,48.59-128.44,48.59h-1.74c-49.46,0-93.72-18.22-128.43-48.59-30.38-31.23,69.42-140.59,128.43-185.72h0Z"/>
  </g>
</svg>